<svg width="471" height="778" viewBox="0 0 471 778" fill="none" xmlns="http://www.w3.org/2000/svg">
<path d="M257.5 8.50008C121.5 -34.2999 68.8333 151 59.5 249C229 257.5 247 425.5 232.5 488C328 478.5 331 309.5 329 252C327 194.5 361.5 41 257.5 8.50008Z" fill="black" stroke="black" stroke-width="3" stroke-linecap="round" stroke-linejoin="round"/>
<path d="M131 126.5C135.8 146.9 141.333 156 143.5 158C139.5 153.2 147.833 114 152.5 95C151.5 105 150.1 124.7 152.5 123.5C154.9 122.3 173.5 121.333 182.5 121C181.833 117.333 182.5 102.9 190.5 74.5C188.9 107.7 189.833 120 190.5 122C196.333 122.5 209.9 123.8 217.5 125C216.3 121.4 223.333 94.1667 227 81C226 92.8333 224.2 118.6 225 127C228 126.5 242.5 130.5 248 132.5C254.8 123.7 262.5 100.833 265.5 90.5C265.333 99.5 263.8 121.3 259 136.5C272.5 140.5 275.5 142.5 281.5 145C291.5 131 291.5 120 296 104.5C296 112.5 291.5 137 287.5 148.5C297 153 295.5 152.5 305 158C293 245 232 291.5 200 287C174.4 283.4 139 242 127 220C126 214.5 125 203.5 124 190.5C83.5 164.5 110 101 131 126.5Z" fill="white" stroke="black" stroke-width="3" stroke-linejoin="round"/>
<path d="M303.5 167.5C326.5 152.5 307.5 223 284.5 224.5C293.7 209.301 301 180.167 303.5 167.5Z" fill="white" stroke="black" stroke-width="3" stroke-linejoin="round"/>
<path fill-rule="evenodd" clip-rule="evenodd" d="M186.022 137.79C186.138 137.25 186.67 136.906 187.21 137.022L208.21 141.522C208.75 141.638 209.094 142.169 208.978 142.709C208.862 143.25 208.331 143.593 207.79 143.478L186.79 138.978C186.25 138.862 185.907 138.33 186.022 137.79ZM183.056 141.976C183.345 140.626 184.674 139.766 186.024 140.055L207.024 144.555C208.374 144.845 209.234 146.174 208.945 147.524C208.655 148.874 207.326 149.734 205.976 149.444L199.591 148.076C199.897 149.882 199.797 152.222 199.217 154.691C198.032 159.734 195.293 163.405 193.099 162.889C190.906 162.374 190.088 157.867 191.274 152.824C191.84 150.412 192.763 148.314 193.811 146.838L184.976 144.944C183.626 144.655 182.766 143.326 183.056 141.976Z" fill="black"/>
<path fill-rule="evenodd" clip-rule="evenodd" d="M267.022 159.79C267.138 159.25 267.669 158.906 268.209 159.022L289.209 163.522C289.749 163.638 290.094 164.169 289.978 164.709C289.937 164.898 289.847 165.062 289.722 165.192C289.49 165.434 289.142 165.553 288.79 165.478L267.79 160.978C267.25 160.862 266.906 160.331 267.022 159.79ZM265.556 164.476C265.845 163.126 267.174 162.266 268.524 162.555L289.524 167.055C290.874 167.345 291.734 168.674 291.444 170.024C291.155 171.374 289.826 172.234 288.476 171.945L278.34 169.772C278.787 171.644 278.737 174.241 278.089 176.998C276.904 182.041 274.165 185.711 271.972 185.196C269.778 184.68 268.961 180.174 270.146 175.131C270.781 172.43 271.861 170.123 273.064 168.642L267.476 167.445C266.126 167.155 265.266 165.826 265.556 164.476Z" fill="black"/>
<path d="M238 190.5L239.5 195.5L236.5 200" stroke="black" stroke-width="3" stroke-linecap="round" stroke-linejoin="round"/>
<path d="M198 232L234 241" stroke="black" stroke-width="3" stroke-linecap="round" stroke-linejoin="round"/>
<path d="M-2.5 271.5C8.5 262.833 44 242.5 102 254C112 243.6 122.167 227.333 126 220.5C140.333 241.667 175.5 284.9 201.5 288.5C196.7 300.1 191.167 308.667 189 311.5C220.5 331.5 251.5 399.5 227 511.5C206.421 605.573 251.5 598 230.5 625C225.069 631.983 257.5 632.5 246 643C274 643 290 644.5 325.5 639C340 624.5 370.5 610.5 379 617.5C387.4 615.1 426.833 596.167 445.5 587C449.5 586.167 455.8 586.1 449 592.5C443.4 600.1 415.667 622 402.5 632C417.667 625.5 450 611.9 458 609.5C467.992 606.502 490.965 613.489 406.192 651.414C417.305 646.547 443.382 652.633 423 675.5C423 683 419.5 688 411 688.5C402.953 688.973 381.462 685.862 391.073 672.377C384.37 681.018 382.908 686.5 365 686.5C349.4 686.5 275.167 721.167 240 738.5C210 807.5 72.5 769 102 712.5C71.5 688.5 106 703 80.5 650.5C57.3333 676.167 8.5 728.6 -1.5 733L-2.5 271.5Z" fill="white"/>
<path d="M406.192 651.414C490.965 613.489 467.992 606.502 458 609.5C450 611.9 417.667 625.5 402.5 632C415.667 622 443.4 600.1 449 592.5C455.8 586.1 449.5 586.167 445.5 587C426.833 596.167 387.4 615.1 379 617.5C370.5 610.5 340 624.5 325.5 639C290 644.5 274 643 246 643C257.5 632.5 225.069 631.983 230.5 625C251.5 598 206.421 605.573 227 511.5C251.5 399.5 220.5 331.5 189 311.5C191.167 308.667 196.7 300.1 201.5 288.5C175.5 284.9 140.333 241.667 126 220.5C122.167 227.333 112 243.6 102 254C44 242.5 8.5 262.833 -2.5 271.5L-1.5 733C8.5 728.6 57.3333 676.167 80.5 650.5C106 703 71.5 688.5 102 712.5C72.5 769 210 807.5 240 738.5C275.167 721.167 349.4 686.5 365 686.5C382.908 686.5 384.37 681.018 391.073 672.377M406.192 651.414C406.128 651.443 406.064 651.471 406 651.5M406.192 651.414C417.305 646.547 443.382 652.633 423 675.5C423 683 419.5 688 411 688.5C402.953 688.973 381.462 685.862 391.073 672.377M391.073 672.377C391.614 671.618 392.254 670.826 393 670C392.306 670.816 391.669 671.609 391.073 672.377ZM70.9989 250C52.4998 282.5 101.001 398 214.5 343M94.4996 254.5C81.5001 286 129.999 366 196.5 318M124.001 698.497C125.5 665.5 194.001 623 201.001 631C211.906 643.462 165.501 680 165.501 712.497M360.5 660C365.167 657.167 374.6 649.6 375 642M379.5 618C385.333 619.833 397.5 624.9 399.5 630.5C402 637.5 404 659.5 403.5 664.5C403 669.5 396.5 671.5 392.5 664.5C389.3 658.9 385.167 649.833 383.5 646L371 639.5M246.499 643C186 643 162.501 768 238.499 739.5M404 655.5L413 659C414.333 659.333 417.6 659.7 420 658.5M393.5 669C398.333 672.5 411.7 678.3 422.5 675.5M155.5 545.5C136.5 576.5 84.5 647.5 74 657.5M12.5 579L32.5 559.5M3 614L36.5 580" stroke="black" stroke-width="3" stroke-linecap="round" stroke-linejoin="round"/>
<path d="M193.5 691.5C198 678.333 215.5 649.5 247.5 642.5" stroke="black" stroke-width="3" stroke-linecap="round" stroke-linejoin="round"/>
<path d="M192 700.5C193.667 714 203.5 741.2 229.5 742C216 746.5 186 744 192 700.5Z" fill="black" stroke="black" stroke-width="3" stroke-linecap="round" stroke-linejoin="round"/>
<path d="M197 297C156.5 287 130 243.5 127 221C140.5 249.5 180.5 283.5 201.5 288C201.667 288.5 201 290.2 197 297Z" fill="black" stroke="black" stroke-linecap="round" stroke-linejoin="round"/>
<path d="M94.4999 278C93.9998 273 97.5006 260.5 101.001 256L95.0005 254C93.1672 259.333 90.0999 273.2 94.4999 278Z" fill="black" stroke="black" stroke-linecap="round" stroke-linejoin="round"/>
<path d="M181.12 321C181.92 320.6 186.12 314.167 188.12 311L196.12 316.5C195.12 317.667 192.32 320.4 189.12 322C185.62 323 180.12 321.5 181.12 321Z" fill="black" stroke="black" stroke-linecap="round" stroke-linejoin="round"/>
<path d="M118.606 158.868C118.739 159.081 118.877 159.291 119.018 159.499C118.859 159.306 118.722 159.095 118.606 158.868C114.107 151.699 113.893 142.042 120.5 137.5C127.736 134.606 115.425 152.654 118.606 158.868Z" fill="black"/>
<path d="M129 178C129.167 175.333 128 168.6 122 163C114.5 156 112.5 143 120.5 137.5C128 134.5 114.5 154 119.018 159.5" stroke="black" stroke-width="3" stroke-linecap="round" stroke-linejoin="round"/>
</svg>
